<svg xmlns="http://www.w3.org/2000/svg" width="89" height="92" viewBox="0 0 89 92"><g><g><path fill="#69d2e7" d="M80.61 71.75l-18.004-7.77c-.421-.21-.895-.727-1.301-1.42l12.08-.01s.7.067 1.781.067c1.986 0 4.883-.22 7.404-1.303a5.442 5.442 0 0 0 3.093-3.517 5.483 5.483 0 0 0-.787-4.656c-3.453-4.898-11.516-17.692-11.768-30.676C72.722 6.902 59.406-2.749 44.5.697 29.599-2.749 16.278 6.902 15.892 22.465 15.64 35.45 7.582 48.243 4.129 53.141a5.467 5.467 0 0 0 2.3 8.173c2.522 1.082 5.418 1.303 7.405 1.303 1.085 0 1.78-.067 1.78-.067l12.081.01c-.406.693-.875 1.21-1.302 1.42L8.39 71.75c-5.212 2.6-8.392 7.722-8.392 13.43V92h89.004v-6.82c0-5.708-3.18-10.83-8.392-13.43z"/></g></g></svg>