<svg xmlns="http://www.w3.org/2000/svg" xmlns:xlink="http://www.w3.org/1999/xlink" id="svg">
    <symbol id="icon-menu" viewBox="0 0 32 32">
        <title>menu</title>
        <path d="M2 6h28v6h-28zM2 14h28v6h-28zM2 22h28v6h-28z"></path>
    </symbol>
    <symbol id="icon-angle-left" viewBox="0 0 32 32">
        <title>angle-left</title>
        <path d="M12.792 15.233l-0.754 0.754 6.035 6.035 0.754-0.754-5.281-5.281 5.256-5.256-0.754-0.754-3.013 3.013z"></path>
    </symbol>
    <symbol id="icon-angle-right" viewBox="0 0 32 32">
        <title>angle-right</title>
        <path d="M19.159 16.767l0.754-0.754-6.035-6.035-0.754 0.754 5.281 5.281-5.256 5.256 0.754 0.754 3.013-3.013z"/>
    </symbol>

    <symbol id="icon-shape" viewBox="0 0 93 81">
        <title>shape</title>
        <path fill="#fa6900" d="M90.625 46.037c1.467 0 2.193.726 2.193 2.193 0 1.09-.726 1.803-2.193 1.803H78.593L70.57 64.244c-.363.74-1.09 1.09-1.83 1.09H52.336l-8.038 13.861c-.348.73-1.09 1.093-1.816 1.093h-17.51c-.727 0-1.453-.364-1.83-1.093L15.12 65.333H2.363c-1.107 0-2.182-1.089-2.182-2.178 0-1.09 1.075-2.182 2.182-2.182H15.12l7.672-12.743-8.023-14.21c-.741-.727-.741-1.467 0-2.194l8.023-13.835-8.023-14.21c-.741-.727-.375-2.182.714-2.923.741-.363 2.193 0 2.92 1.09l8.035 13.85h14.954l8.02-13.85c.727-1.09 1.83-1.453 2.923-1.09 1.09.741 1.467 2.196.726 2.922l-8.023 14.211 7.297 12.743H68.74c.74 0 1.467.363 1.83 1.092l8.023 14.21zM18.781 32.93l7.658 13.107h14.954l7.294-13.107-7.294-12.758H26.44zm29.906 30.225l-7.294-13.122H26.44L18.78 63.155l7.658 12.758h14.954z"/>
        <path fill="#69d2e7" d="M90.625 46.037c1.467 0 2.193.726 2.193 2.193 0 1.09-.726 1.803-2.193 1.803H78.593L70.57 64.244c-.363.74-1.09 1.09-1.83 1.09H52.336l-8.038 13.861c-.348.73-1.09 1.093-1.816 1.093h-17.51c-.727 0-1.453-.364-1.83-1.093L15.12 65.333H2.363c-1.107 0-2.182-1.089-2.182-2.178 0-1.09 1.075-2.182 2.182-2.182H15.12l7.672-12.743-8.023-14.21c-.741-.727-.741-1.467 0-2.194l8.023-13.835-8.023-14.21c-.741-.727-.375-2.182.714-2.923.741-.363 2.193 0 2.92 1.09l8.035 13.85h14.954l8.02-13.85c.727-1.09 1.83-1.453 2.923-1.09 1.09.741 1.467 2.196.726 2.922l-8.023 14.211 7.297 12.743H68.74c.74 0 1.467.363 1.83 1.092l8.023 14.21zM18.781 32.93l7.658 13.107h14.954l7.294-13.107-7.294-12.758H26.44zm29.906 30.225l-7.294-13.122H26.44L18.78 63.155l7.658 12.758h14.954z"/>
    </symbol>
    <symbol id="icon-time" viewBox="0 0 93 77">
        <title>time</title>
        <path fill="#fff" d="M76.318 57.491c.363.363 0 1.09 0 1.816l2.544 8.386-5.1-7.294c-.741-.363-1.09-.73-1.468-1.092-.714-1.09 0-2.542 1.105-2.92 1.089-.711 2.193 0 2.919 1.104zM42.752 18.503c2.193-3.283 1.104-8.006-2.545-10.199-3.66-2.196-8.398-.726-10.591 2.904l-11.67 20.056c2.194 2.92 2.557 6.553.742 9.457l-2.935 4.753c-2.181 4.012-7.282 5.45-11.29 3.27-4.012-2.544-5.48-7.66-3.3-11.29l2.921-5.101c1.83-2.922 4.75-4.375 8.036-4.012L23.789 7.578c4.008-6.92 12.758-9.113 19.689-5.086 6.93 3.994 9.487 12.728 5.479 19.66l-7.658 12.743-5.842 10.58-7.66 12.742c-1.83 3.649-.726 8.372 2.923 10.565 3.645 2.193 8.383.726 10.216-2.907l2.179-3.283-4.012-2.193c-2.178-1.455-2.904-4.375-1.83-6.556l24.82-42.635c1.074-2.178 4.011-3.267 6.568-1.815l21.882 12.395c2.182 1.453 2.908 4.375 1.819 6.916l-9.49 16.03c7.671 4.374 10.216 14.21 5.841 21.855-4.375 7.657-14.225 10.214-21.882 5.827-1.468 1.09-4.012 1.467-5.842.363l-12.032-6.904-1.83 3.27c-4.012 6.931-12.762 9.461-19.705 5.464-6.919-4.011-9.475-12.743-5.464-19.674l7.295-12.746 6.204-10.577zM80.33 48.382c-5.48-3.27-12.773-1.47-15.696 4.008-3.282 5.827-1.467 12.744 4.027 16.03 5.464 2.904 12.758 1.088 16.043-4.376 2.92-5.464 1.104-12.743-4.374-15.662z"/>
    </symbol>
    <symbol id="icon-react"  viewBox="0 0 83 93">
        <title>react</title>
        <path fill="#fa6900" d="M32.911 46.501c0 4.357 4.012 8.369 8.399 8.369 4.737 0 8.386-4.012 8.386-8.369 0-4.737-3.649-8.386-8.386-8.386-4.387 0-8.399 3.649-8.399 8.386zm40.483 27.68c-1.816.741-4.009 1.09-6.19 1.09-2.557 0-5.476-.349-8.399-1.09.378-1.815 1.104-3.267 1.468-5.1 1.089-3.631 1.83-7.643 2.196-12.018a83.952 83.952 0 0 0 8.02-8.02c.363.726.726 1.104 1.09 1.467 2.193 2.922 4.011 5.827 5.115 8.75 1.09 2.904 1.815 5.464 1.815 7.279 0 2.178-.348 3.633-1.452 5.1-.726 1.09-2.193 1.816-3.663 2.542zM50.437 71.64c-1.833-.726-3.664-1.819-5.479-2.56 2.92-1.815 6.19-3.267 9.11-5.449 1.455-1.104 2.922-2.193 4.39-3.282-.742 4.723-1.468 9.11-2.935 12.743-1.818-.363-3.27-1.09-5.086-1.452zm-2.56 14.573c-1.104 1.09-2.208 1.818-3.282 2.182-.741.74-2.196 1.089-3.285 1.089-1.09 0-2.194-.348-3.298-1.09-1.803-.726-3.634-2.544-5.449-4.737-1.467-2.193-2.937-4.375-4.027-7.28 1.83-.729 3.286-1.107 5.101-1.833 2.572-1.089 5.116-2.178 7.673-3.63 2.544 1.452 5.463 2.541 7.657 3.63 1.818.726 3.648 1.47 5.479 1.833-.378.364-.378.727-.378 1.09-1.816 3.645-4.009 6.568-6.19 8.746zM24.163 59.986c1.455 1.089 2.922 2.178 4.374 3.267 2.923 2.197 6.205 4.012 9.113 5.827-1.818.741-3.649 1.47-5.086 2.182-1.833.74-3.663 1.104-5.116 1.83-.726-1.452-1.104-3.27-1.467-5.101-.726-2.178-1.09-5.1-1.818-8.005zM9.573 73.833c-1.83-.378-3.282-1.467-4.011-2.571-1.09-1.44-1.467-2.908-1.467-5.086 0-1.83.74-4.375 1.833-7.294 1.452-2.923 3.645-6.554 6.568-9.84v.379c2.541 2.178 5.098 5.1 8.02 7.642.726 6.19 1.816 11.654 3.646 16.77-3.283.711-6.205 1.09-8.398 1.09-2.557 0-4.738-.379-6.19-1.09zm5.116-27.698l.348-.363c1.468-1.83 3.286-3.282 5.116-5.098-.378 1.816-.378 3.646-.378 5.827 0 1.83 0 3.646.378 5.461-2.196-1.815-4.012-3.63-5.464-5.827zM4.473 26.098c0-1.83.363-3.634 1.455-4.738.726-1.104 2.178-2.193 3.645-2.541 1.816-.741 3.634-1.09 6.19-1.09 2.194 0 5.116.349 8.399 1.09-.726 1.437-1.09 3.267-1.452 5.1-1.105 3.631-1.83 7.643-2.194 11.654-2.922 2.905-5.827 5.464-8.02 8.006-.378-.348-.741-.726-1.107-1.09-2.194-3.27-4.009-6.19-5.461-8.749-1.092-2.904-1.455-5.464-1.455-7.642zm28.09-4.738c1.815.726 3.268 1.467 5.45 2.56-3.272 1.452-6.191 3.267-9.113 5.463-1.453 1.09-3.283 2.179-4.738 3.268.729-4.723 1.818-9.095 3.285-13.106 1.453.711 3.283 1.09 5.116 1.815zm2.178-14.936l3.271-2.182c1.104-.378 2.208-.726 3.298-.726 1.089 0 2.544.348 3.285.726 2.178.726 4.009 2.545 5.842 5.101 1.452 2.193 2.541 4.375 4.009 7.294-1.83.715-3.66 1.092-5.116 1.818-2.557 1.09-5.098 1.801-7.672 3.268-2.905-1.467-5.45-2.556-8.02-3.268-1.816-.726-3.271-1.467-5.102-1.818.364-.378.364-.74.364-1.104 1.83-3.645 3.663-6.916 5.841-9.11zM58.457 32.65c-1.467-1.09-2.556-2.178-4.39-3.268-2.919-2.196-5.826-4.011-8.746-5.464 1.816-1.092 3.283-1.833 5.116-2.196 1.815-.726 3.63-1.467 5.086-1.815.378 1.452 1.104 2.92 1.467 4.738.726 2.541 1.09 5.464 1.467 8.005zm.726 22.597c-2.193 1.815-4.39 3.634-6.93 5.464-3.65 2.541-7.295 4.738-10.943 6.553-3.661-1.815-7.31-4.012-10.58-6.553-2.557-1.83-4.75-3.649-6.946-5.464-.348-2.92-.348-5.827-.348-8.747 0-3.27 0-6.193.348-9.112 2.196-1.816 4.39-3.27 6.946-5.1 3.648-2.542 7.282-4.739 10.928-6.554 3.3 1.815 6.946 4.012 10.594 6.553 2.542 1.83 4.738 3.285 6.931 5.1.349 2.92.349 6.19.349 9.113 0 2.92 0 5.827-.349 8.747zm9.113-8.747l-.366.741c-1.816 1.8-3.283 3.268-5.098 4.72v-5.46-5.828c1.815 2.179 4.009 3.994 5.464 5.827zm5.098-27.682c1.833.726 2.937 1.437 4.011 2.904.756 1.104 1.104 2.923 1.104 4.738 0 2.193-.348 4.738-1.452 7.28-1.467 3.285-3.663 6.567-6.568 10.201l-.363-.363c-2.196-2.542-4.753-5.101-7.657-7.642-.741-6.19-1.833-12.018-3.664-16.77 3.298-.712 5.842-1.09 8.399-1.09 2.544 0 4.737.378 6.19.742zm1.107 25.85c2.193-3.268 4.008-6.554 5.476-9.458 1.44-2.923 2.196-5.828 2.196-8.75 0-2.542-.756-4.738-2.196-6.916-1.468-1.816-3.283-2.908-5.476-3.649-2.182-1.089-4.753-1.452-7.297-1.452-2.92 0-6.205.726-9.488 1.452-.363-.726-.363-1.089-.726-1.452-1.818-4.375-4.012-8.02-6.553-10.202-1.47-1.467-2.937-2.193-4.39-2.92C44.595.598 43.127.235 41.31.235c-1.468 0-2.92.363-4.738 1.089C34 2.427 31.822 4.605 29.626 7.15c-1.453 2.556-2.905 5.479-4.372 8.383-3.285-.726-6.553-1.09-9.49-1.09-2.557 0-5.101.364-7.28 1.09-2.193.726-4.011 2.196-5.479 3.634-1.452 1.83-1.83 4.39-1.83 6.93 0 2.92.378 5.828 1.83 8.75 1.468 3.631 4.012 7.643 6.931 11.288-.363.73-1.089 1.456-1.452 2.197-2.556 3.267-4.39 6.19-5.842 9.457C1.553 60.712.827 63.631.827 66.176c0 2.541.726 5.086 1.815 6.916 1.453 1.83 3.286 3.285 5.464 4.012 2.194.74 4.753 1.089 7.658 1.089 2.937 0 5.841-.348 9.49-1.09 0 .364.363 1.09.726 1.453 1.815 4.011 4.009 7.657 6.583 10.202 1.437 1.104 2.542 2.193 4.009 2.92 1.818.725 3.27 1.088 4.738 1.088 1.818 0 3.285-.363 4.737-1.089 2.557-1.09 5.101-3.282 6.931-6.205 1.816-2.178 3.286-5.1 4.738-8.005 3.283.726 6.568 1.089 9.488 1.089 2.544 0 5.115-.363 7.297-1.09 2.193-.725 4.008-2.196 5.098-4.011 1.47-1.815 2.196-4.375 2.196-6.916 0-2.557-.726-5.464-1.818-8.75-1.816-3.63-4.024-7.279-7.31-11.288.727-.366 1.105-1.092 1.834-1.833z"/>
        <path fill="#69d2e7" d="M32.911 46.501c0 4.357 4.012 8.369 8.399 8.369 4.737 0 8.386-4.012 8.386-8.369 0-4.737-3.649-8.386-8.386-8.386-4.387 0-8.399 3.649-8.399 8.386zm40.483 27.68c-1.816.741-4.009 1.09-6.19 1.09-2.557 0-5.476-.349-8.399-1.09.378-1.815 1.104-3.267 1.468-5.1 1.089-3.631 1.83-7.643 2.196-12.018a83.952 83.952 0 0 0 8.02-8.02c.363.726.726 1.104 1.09 1.467 2.193 2.922 4.011 5.827 5.115 8.75 1.09 2.904 1.815 5.464 1.815 7.279 0 2.178-.348 3.633-1.452 5.1-.726 1.09-2.193 1.816-3.663 2.542zM50.437 71.64c-1.833-.726-3.664-1.819-5.479-2.56 2.92-1.815 6.19-3.267 9.11-5.449 1.455-1.104 2.922-2.193 4.39-3.282-.742 4.723-1.468 9.11-2.935 12.743-1.818-.363-3.27-1.09-5.086-1.452zm-2.56 14.573c-1.104 1.09-2.208 1.818-3.282 2.182-.741.74-2.196 1.089-3.285 1.089-1.09 0-2.194-.348-3.298-1.09-1.803-.726-3.634-2.544-5.449-4.737-1.467-2.193-2.937-4.375-4.027-7.28 1.83-.729 3.286-1.107 5.101-1.833 2.572-1.089 5.116-2.178 7.673-3.63 2.544 1.452 5.463 2.541 7.657 3.63 1.818.726 3.648 1.47 5.479 1.833-.378.364-.378.727-.378 1.09-1.816 3.645-4.009 6.568-6.19 8.746zM24.163 59.986c1.455 1.089 2.922 2.178 4.374 3.267 2.923 2.197 6.205 4.012 9.113 5.827-1.818.741-3.649 1.47-5.086 2.182-1.833.74-3.663 1.104-5.116 1.83-.726-1.452-1.104-3.27-1.467-5.101-.726-2.178-1.09-5.1-1.818-8.005zM9.573 73.833c-1.83-.378-3.282-1.467-4.011-2.571-1.09-1.44-1.467-2.908-1.467-5.086 0-1.83.74-4.375 1.833-7.294 1.452-2.923 3.645-6.554 6.568-9.84v.379c2.541 2.178 5.098 5.1 8.02 7.642.726 6.19 1.816 11.654 3.646 16.77-3.283.711-6.205 1.09-8.398 1.09-2.557 0-4.738-.379-6.19-1.09zm5.116-27.698l.348-.363c1.468-1.83 3.286-3.282 5.116-5.098-.378 1.816-.378 3.646-.378 5.827 0 1.83 0 3.646.378 5.461-2.196-1.815-4.012-3.63-5.464-5.827zM4.473 26.098c0-1.83.363-3.634 1.455-4.738.726-1.104 2.178-2.193 3.645-2.541 1.816-.741 3.634-1.09 6.19-1.09 2.194 0 5.116.349 8.399 1.09-.726 1.437-1.09 3.267-1.452 5.1-1.105 3.631-1.83 7.643-2.194 11.654-2.922 2.905-5.827 5.464-8.02 8.006-.378-.348-.741-.726-1.107-1.09-2.194-3.27-4.009-6.19-5.461-8.749-1.092-2.904-1.455-5.464-1.455-7.642zm28.09-4.738c1.815.726 3.268 1.467 5.45 2.56-3.272 1.452-6.191 3.267-9.113 5.463-1.453 1.09-3.283 2.179-4.738 3.268.729-4.723 1.818-9.095 3.285-13.106 1.453.711 3.283 1.09 5.116 1.815zm2.178-14.936l3.271-2.182c1.104-.378 2.208-.726 3.298-.726 1.089 0 2.544.348 3.285.726 2.178.726 4.009 2.545 5.842 5.101 1.452 2.193 2.541 4.375 4.009 7.294-1.83.715-3.66 1.092-5.116 1.818-2.557 1.09-5.098 1.801-7.672 3.268-2.905-1.467-5.45-2.556-8.02-3.268-1.816-.726-3.271-1.467-5.102-1.818.364-.378.364-.74.364-1.104 1.83-3.645 3.663-6.916 5.841-9.11zM58.457 32.65c-1.467-1.09-2.556-2.178-4.39-3.268-2.919-2.196-5.826-4.011-8.746-5.464 1.816-1.092 3.283-1.833 5.116-2.196 1.815-.726 3.63-1.467 5.086-1.815.378 1.452 1.104 2.92 1.467 4.738.726 2.541 1.09 5.464 1.467 8.005zm.726 22.597c-2.193 1.815-4.39 3.634-6.93 5.464-3.65 2.541-7.295 4.738-10.943 6.553-3.661-1.815-7.31-4.012-10.58-6.553-2.557-1.83-4.75-3.649-6.946-5.464-.348-2.92-.348-5.827-.348-8.747 0-3.27 0-6.193.348-9.112 2.196-1.816 4.39-3.27 6.946-5.1 3.648-2.542 7.282-4.739 10.928-6.554 3.3 1.815 6.946 4.012 10.594 6.553 2.542 1.83 4.738 3.285 6.931 5.1.349 2.92.349 6.19.349 9.113 0 2.92 0 5.827-.349 8.747zm9.113-8.747l-.366.741c-1.816 1.8-3.283 3.268-5.098 4.72v-5.46-5.828c1.815 2.179 4.009 3.994 5.464 5.827zm5.098-27.682c1.833.726 2.937 1.437 4.011 2.904.756 1.104 1.104 2.923 1.104 4.738 0 2.193-.348 4.738-1.452 7.28-1.467 3.285-3.663 6.567-6.568 10.201l-.363-.363c-2.196-2.542-4.753-5.101-7.657-7.642-.741-6.19-1.833-12.018-3.664-16.77 3.298-.712 5.842-1.09 8.399-1.09 2.544 0 4.737.378 6.19.742zm1.107 25.85c2.193-3.268 4.008-6.554 5.476-9.458 1.44-2.923 2.196-5.828 2.196-8.75 0-2.542-.756-4.738-2.196-6.916-1.468-1.816-3.283-2.908-5.476-3.649-2.182-1.089-4.753-1.452-7.297-1.452-2.92 0-6.205.726-9.488 1.452-.363-.726-.363-1.089-.726-1.452-1.818-4.375-4.012-8.02-6.553-10.202-1.47-1.467-2.937-2.193-4.39-2.92C44.595.598 43.127.235 41.31.235c-1.468 0-2.92.363-4.738 1.089C34 2.427 31.822 4.605 29.626 7.15c-1.453 2.556-2.905 5.479-4.372 8.383-3.285-.726-6.553-1.09-9.49-1.09-2.557 0-5.101.364-7.28 1.09-2.193.726-4.011 2.196-5.479 3.634-1.452 1.83-1.83 4.39-1.83 6.93 0 2.92.378 5.828 1.83 8.75 1.468 3.631 4.012 7.643 6.931 11.288-.363.73-1.089 1.456-1.452 2.197-2.556 3.267-4.39 6.19-5.842 9.457C1.553 60.712.827 63.631.827 66.176c0 2.541.726 5.086 1.815 6.916 1.453 1.83 3.286 3.285 5.464 4.012 2.194.74 4.753 1.089 7.658 1.089 2.937 0 5.841-.348 9.49-1.09 0 .364.363 1.09.726 1.453 1.815 4.011 4.009 7.657 6.583 10.202 1.437 1.104 2.542 2.193 4.009 2.92 1.818.725 3.27 1.088 4.738 1.088 1.818 0 3.285-.363 4.737-1.089 2.557-1.09 5.101-3.282 6.931-6.205 1.816-2.178 3.286-5.1 4.738-8.005 3.283.726 6.568 1.089 9.488 1.089 2.544 0 5.115-.363 7.297-1.09 2.193-.725 4.008-2.196 5.098-4.011 1.47-1.815 2.196-4.375 2.196-6.916 0-2.557-.726-5.464-1.818-8.75-1.816-3.63-4.024-7.279-7.31-11.288.727-.366 1.105-1.092 1.834-1.833z"/>
    </symbol>
    <symbol id="icon-ava"  viewBox="0 0 89 92">
        <title>avatar</title>
        <path fill="#69d2e7" d="M80.61 71.75l-18.004-7.77c-.421-.21-.895-.727-1.301-1.42l12.08-.01s.7.067 1.781.067c1.986 0 4.883-.22 7.404-1.303a5.442 5.442 0 0 0 3.093-3.517 5.483 5.483 0 0 0-.787-4.656c-3.453-4.898-11.516-17.692-11.768-30.676C72.722 6.902 59.406-2.749 44.5.697 29.599-2.749 16.278 6.902 15.892 22.465 15.64 35.45 7.582 48.243 4.129 53.141a5.467 5.467 0 0 0 2.3 8.173c2.522 1.082 5.418 1.303 7.405 1.303 1.085 0 1.78-.067 1.78-.067l12.081.01c-.406.693-.875 1.21-1.302 1.42L8.39 71.75c-5.212 2.6-8.392 7.722-8.392 13.43V92h89.004v-6.82c0-5.708-3.18-10.83-8.392-13.43z"/>
    </symbol>


    <symbol id="icon-facebook"  viewBox="0 0 11 22">
        <title>facebook</title>
        <path d="M6.905 6.762V5.1c0-.81.535-1 .91-1h2.306V.539L6.945.524c-3.526 0-4.327 2.658-4.327 4.359v1.88H.58v4.157h2.056v10.397h4.112V10.92h3.051l.148-1.633.227-2.525z"/>
    </symbol>
    <symbol id="icon-linkedin"  viewBox="0 0 22 21">
        <title>linkedin</title>
        <path d="M.87 7.136h4.797v13.861H.87zM5.667 2.63c0 1.34-1.074 2.425-2.398 2.425-1.325 0-2.4-1.086-2.4-2.425C.87 1.29 1.945.205 3.27.205c1.324 0 2.398 1.086 2.398 2.426zM21.428 13.38v7.617h-4.113v-6.753c0-1.612-.176-3.683-2.36-3.683-2.215 0-2.553 1.754-2.553 3.566v6.87H8.408V7.136h3.82v1.87h.06c.569-1.092 1.96-1.87 4.031-1.87 3.493 0 4.68 1.643 5.004 4.256.076.612.105 1.277.105 1.988z"/>
    </symbol>
    <symbol id="icon-twitter"  viewBox="0 0 21 17">
        <title>twitter</title>
        <path d="M20.561 1.966a8.433 8.433 0 0 1-2.422.66A4.214 4.214 0 0 0 19.994.303a8.455 8.455 0 0 1-2.68 1.02 4.217 4.217 0 0 0-3.077-1.327c-2.329 0-4.217 1.881-4.217 4.2 0 .33.038.648.108.956A11.992 11.992 0 0 1 1.435.765a4.172 4.172 0 0 0-.571 2.111c0 1.456.746 2.741 1.876 3.495a4.222 4.222 0 0 1-1.91-.525v.052c0 .538.103 1.05.288 1.522a4.224 4.224 0 0 0 3.096 2.597 4.31 4.31 0 0 1-1.113.148c-.27 0-.535-.027-.793-.077a4.221 4.221 0 0 0 3.94 2.916 8.48 8.48 0 0 1-5.239 1.799c-.34 0-.675-.02-1.007-.06a11.99 11.99 0 0 0 6.466 1.887c6.594 0 10.646-4.62 11.715-9.413a11.668 11.668 0 0 0 .275-3.078 8.53 8.53 0 0 0 2.103-2.173z"/>
    </symbol>
    <symbol id="icon-pinterest"  viewBox="0 0 17 21">
        <title>pinterest</title>
        <path d="M9.277-.089C3.481-.088.557 3.98.557 7.371c0 .628.075 1.233.228 1.791.343 1.272 1.088 2.299 2.27 2.773.282.11.531.004.612-.3.056-.21.19-.737.25-.96.08-.3.05-.403-.176-.665a3.146 3.146 0 0 1-.663-1.233 4.076 4.076 0 0 1-.144-1.108c0-3.018 2.31-5.72 6.009-5.72 3.276 0 5.077 1.96 5.077 4.576 0 .77-.078 1.514-.225 2.204-.51 2.394-1.85 4.146-3.642 4.146-1.278 0-2.234-1.033-1.928-2.3.176-.721.428-1.469.645-2.173.238-.773.433-1.493.433-2.065 0-.977-.536-1.792-1.645-1.792-1.306 0-2.355 1.32-2.355 3.09 0 .333.036.634.083.893.115.618.307.998.307.998l-1.57 6.507c-.465 1.932-.07 4.3-.036 4.538.02.142.207.176.291.07.12-.154 1.674-2.033 2.203-3.909.15-.532.858-3.282.858-3.282.424.792 1.663 1.488 2.98 1.488 3.195 0 5.553-2.323 6.318-5.716.175-.772.266-1.6.266-2.47 0-3.542-3.066-6.84-7.726-6.84z"/>
    </symbol>
</svg>