<svg xmlns="http://www.w3.org/2000/svg" width="17" height="21" viewBox="0 0 17 21"><g><g><path d="M9.277-.089C3.481-.088.557 3.98.557 7.371c0 .628.075 1.233.228 1.791.343 1.272 1.088 2.299 2.27 2.773.282.11.531.004.612-.3.056-.21.19-.737.25-.96.08-.3.05-.403-.176-.665a3.146 3.146 0 0 1-.663-1.233 4.076 4.076 0 0 1-.144-1.108c0-3.018 2.31-5.72 6.009-5.72 3.276 0 5.077 1.96 5.077 4.576 0 .77-.078 1.514-.225 2.204-.51 2.394-1.85 4.146-3.642 4.146-1.278 0-2.234-1.033-1.928-2.3.176-.721.428-1.469.645-2.173.238-.773.433-1.493.433-2.065 0-.977-.536-1.792-1.645-1.792-1.306 0-2.355 1.32-2.355 3.09 0 .333.036.634.083.893.115.618.307.998.307.998l-1.57 6.507c-.465 1.932-.07 4.3-.036 4.538.02.142.207.176.291.07.12-.154 1.674-2.033 2.203-3.909.15-.532.858-3.282.858-3.282.424.792 1.663 1.488 2.98 1.488 3.195 0 5.553-2.323 6.318-5.716.175-.772.266-1.6.266-2.47 0-3.542-3.066-6.84-7.726-6.84z"/></g></g></svg>