<svg xmlns="http://www.w3.org/2000/svg" width="21" height="17" viewBox="0 0 21 17"><g><g><path d="M20.561 1.966a8.433 8.433 0 0 1-2.422.66A4.214 4.214 0 0 0 19.994.303a8.455 8.455 0 0 1-2.68 1.02 4.217 4.217 0 0 0-3.077-1.327c-2.329 0-4.217 1.881-4.217 4.2 0 .33.038.648.108.956A11.992 11.992 0 0 1 1.435.765a4.172 4.172 0 0 0-.571 2.111c0 1.456.746 2.741 1.876 3.495a4.222 4.222 0 0 1-1.91-.525v.052c0 .538.103 1.05.288 1.522a4.224 4.224 0 0 0 3.096 2.597 4.31 4.31 0 0 1-1.113.148c-.27 0-.535-.027-.793-.077a4.221 4.221 0 0 0 3.94 2.916 8.48 8.48 0 0 1-5.239 1.799c-.34 0-.675-.02-1.007-.06a11.99 11.99 0 0 0 6.466 1.887c6.594 0 10.646-4.62 11.715-9.413a11.668 11.668 0 0 0 .275-3.078 8.53 8.53 0 0 0 2.103-2.173z"/></g></g></svg>